<svg width="300" height="74" viewBox="0 0 300 74" fill="none" xmlns="http://www.w3.org/2000/svg">
<path fill-rule="evenodd" clip-rule="evenodd" d="M74.3159 9.19716L17.9736 9.19789L1.79769 24H1V64C1 68.9706 5.02944 73 10 73H274.189L299 53.5138V10.0007C299 5.03015 294.971 1.00071 290 1.0007L87.0412 1L74.3159 9.19716ZM86.747 0L290 0.000695608C295.523 0.000714509 300 4.47786 300 10.0007V54L274.535 74H10C4.47715 74 0 69.5229 0 64V23H1.40921L17.5851 8.1979L74.0217 8.19717L86.747 0Z" fill="black"/>
<path fill-rule="evenodd" clip-rule="evenodd" d="M74.3159 9.19716L17.9736 9.19789L1.79769 24H1V64C1 68.9706 5.02944 73 10 73H274.189L299 53.5138V10.0007C299 5.03015 294.971 1.00071 290 1.0007L87.0412 1L74.3159 9.19716ZM86.747 0L290 0.000695608C295.523 0.000714509 300 4.47786 300 10.0007V54L274.535 74H10C4.47715 74 0 69.5229 0 64V23H1.40921L17.5851 8.1979L74.0217 8.19717L86.747 0Z" fill="black"/>
<rect x="27.1826" y="23" width="36" height="36" rx="4" fill="black"/>
<path d="M52.005 40.8612L55.6862 39.0269L56.9552 35.1321L54.4173 33.2852H37.5187L33.6113 36.1874H53.475L52.4196 39.4541H44.454L43.6876 41.8412H51.6532L49.4168 48.7137L53.1483 46.8668L54.4801 42.7458L51.9799 40.9115L52.005 40.8612Z" fill="#FCFC03"/>
<path d="M39.2278 45.7616L41.527 38.6002L38.9765 36.6904L35.1445 48.7142H49.4172L50.3721 45.7616H39.2278Z" fill="#FCFC03"/>
<path d="M265.059 46.9222V37.0582H260.595C260.325 37.0582 260.199 36.9142 260.199 36.6802V35.0782C260.199 34.8442 260.325 34.7002 260.595 34.7002H272.421C272.691 34.7002 272.817 34.8442 272.817 35.0782V36.6802C272.817 36.9142 272.691 37.0582 272.421 37.0582H267.975V46.9222C267.975 47.1562 267.813 47.3002 267.561 47.3002H265.455C265.203 47.3002 265.059 47.1562 265.059 46.9222Z" fill="black"/>
<path d="M244.779 43.5562H246.813C247.065 43.5562 247.227 43.6822 247.227 43.9342V44.1142C247.227 44.6722 247.461 44.9422 248.073 44.9422H253.257C254.211 44.9422 254.445 44.7082 254.445 43.9522V43.0882C254.445 42.3322 254.211 42.0982 253.257 42.0982H247.479C245.445 42.0982 244.545 41.2162 244.545 39.2902V37.5082C244.545 35.5822 245.445 34.7002 247.479 34.7002H254.175C256.335 34.7002 257.109 35.4382 257.109 37.5082V38.0662C257.109 38.3182 256.965 38.4442 256.713 38.4442H254.679C254.409 38.4442 254.283 38.3182 254.283 38.0662V37.8862C254.283 37.3282 254.031 37.0582 253.401 37.0582H248.649C247.695 37.0582 247.461 37.2922 247.461 38.0482V38.7862C247.461 39.5602 247.695 39.7942 248.649 39.7942H254.409C256.461 39.7942 257.361 40.6582 257.361 42.6022V44.4922C257.361 46.4182 256.461 47.3002 254.409 47.3002H247.317C245.157 47.3002 244.383 46.5622 244.383 44.4922V43.9342C244.383 43.6822 244.527 43.5562 244.779 43.5562Z" fill="black"/>
<path d="M238.709 46.9402L237.827 44.8882H231.023L230.159 46.9402C230.051 47.1922 229.907 47.3002 229.601 47.3002H227.369C227.135 47.3002 227.045 47.1202 227.135 46.9042L232.409 35.0602C232.499 34.8082 232.661 34.7002 232.967 34.7002H236.027C236.333 34.7002 236.477 34.8082 236.585 35.0602L241.859 46.9042C241.949 47.1202 241.859 47.3002 241.643 47.3002H239.267C238.943 47.3002 238.817 47.1922 238.709 46.9402ZM234.425 36.8782L231.995 42.5842H236.855L234.425 36.8782Z" fill="black"/>
<path d="M216.308 35.0782V44.9422H224.516C224.768 44.9422 224.912 45.0862 224.912 45.3202V46.9222C224.912 47.1562 224.768 47.3002 224.516 47.3002H213.788C213.518 47.3002 213.392 47.1562 213.392 46.9222V35.0782C213.392 34.8442 213.518 34.7002 213.788 34.7002H215.894C216.146 34.7002 216.308 34.8442 216.308 35.0782Z" fill="black"/>
<path d="M209.411 38.2282C209.411 39.7942 208.853 40.6402 207.593 40.9282C208.997 41.1802 209.591 42.0262 209.591 43.6642V44.4922C209.591 46.4182 208.691 47.3002 206.657 47.3002H197.099C196.829 47.3002 196.703 47.1562 196.703 46.9222V35.0782C196.703 34.8442 196.829 34.7002 197.099 34.7002H206.459C208.493 34.7002 209.411 35.5822 209.411 37.5082V38.2282ZM205.361 42.0982H199.619V44.9422H205.361C206.405 44.9422 206.675 44.6902 206.675 43.7902V43.2502C206.675 42.3502 206.405 42.0982 205.361 42.0982ZM199.619 37.0582V39.7942H205.181C206.207 39.7942 206.495 39.5242 206.495 38.6422V38.2102C206.495 37.3102 206.207 37.0582 205.181 37.0582H199.619Z" fill="black"/>
<path d="M184.845 47.3002H181.191C180.903 47.3002 180.759 47.2282 180.633 46.9942L174.603 37.0402V46.9222C174.603 47.1562 174.459 47.3002 174.207 47.3002H172.299C172.029 47.3002 171.903 47.1562 171.903 46.9222V35.0782C171.903 34.8442 172.029 34.7002 172.299 34.7002H175.935C176.223 34.7002 176.367 34.7902 176.493 35.0062L182.523 44.9782V35.0782C182.523 34.8442 182.685 34.7002 182.937 34.7002H184.845C185.097 34.7002 185.241 34.8442 185.241 35.0782V46.9222C185.241 47.1562 185.097 47.3002 184.845 47.3002Z" fill="black"/>
<path d="M167.703 37.5802V44.4202C167.703 46.4002 166.767 47.3002 164.697 47.3002H157.461C155.409 47.3002 154.437 46.4002 154.437 44.4202V37.5802C154.437 35.6002 155.409 34.7002 157.461 34.7002H164.697C166.767 34.7002 167.703 35.6002 167.703 37.5802ZM164.787 43.5922V38.4082C164.787 37.2922 164.517 37.0582 163.185 37.0582H158.955C157.623 37.0582 157.353 37.2922 157.353 38.4082V43.5922C157.353 44.7082 157.623 44.9422 158.955 44.9422H163.185C164.517 44.9422 164.787 44.7082 164.787 43.5922Z" fill="black"/>
<path d="M136.394 46.9222V37.0582H131.93C131.66 37.0582 131.534 36.9142 131.534 36.6802V35.0782C131.534 34.8442 131.66 34.7002 131.93 34.7002H143.756C144.026 34.7002 144.152 34.8442 144.152 35.0782V36.6802C144.152 36.9142 144.026 37.0582 143.756 37.0582H139.31V46.9222C139.31 47.1562 139.148 47.3002 138.896 47.3002H136.79C136.538 47.3002 136.394 47.1562 136.394 46.9222Z" fill="black"/>
<path d="M123.112 35.0782V44.9422H131.32C131.572 44.9422 131.716 45.0862 131.716 45.3202V46.9222C131.716 47.1562 131.572 47.3002 131.32 47.3002H120.592C120.322 47.3002 120.196 47.1562 120.196 46.9222V35.0782C120.196 34.8442 120.322 34.7002 120.592 34.7002H122.698C122.95 34.7002 123.112 34.8442 123.112 35.0782Z" fill="black"/>
<path d="M115.792 35.0782V46.9222C115.792 47.1562 115.63 47.3002 115.378 47.3002H113.272C113.002 47.3002 112.876 47.1562 112.876 46.9222V35.0782C112.876 34.8442 113.002 34.7002 113.272 34.7002H115.378C115.63 34.7002 115.792 34.8442 115.792 35.0782Z" fill="black"/>
<path d="M98.6972 35.0782V43.5922C98.6972 44.7082 98.9492 44.9422 100.299 44.9422H104.043C105.393 44.9422 105.663 44.7082 105.663 43.5922V35.0782C105.663 34.8442 105.807 34.7002 106.059 34.7002H108.165C108.417 34.7002 108.579 34.8442 108.579 35.0782V44.4202C108.579 46.4002 107.643 47.3002 105.573 47.3002H98.8053C96.7352 47.3002 95.7812 46.4002 95.7812 44.4202V35.0782C95.7812 34.8442 95.9072 34.7002 96.1772 34.7002H98.2832C98.5532 34.7002 98.6972 34.8442 98.6972 35.0782Z" fill="black"/>
<path d="M91.8906 38.2282C91.8906 39.7942 91.3326 40.6402 90.0726 40.9282C91.4766 41.1802 92.0706 42.0262 92.0706 43.6642V44.4922C92.0706 46.4182 91.1706 47.3002 89.1366 47.3002H79.5786C79.3086 47.3002 79.1826 47.1562 79.1826 46.9222V35.0782C79.1826 34.8442 79.3086 34.7002 79.5786 34.7002H88.9386C90.9726 34.7002 91.8906 35.5822 91.8906 37.5082V38.2282ZM87.8406 42.0982H82.0986V44.9422H87.8406C88.8846 44.9422 89.1546 44.6902 89.1546 43.7902V43.2502C89.1546 42.3502 88.8846 42.0982 87.8406 42.0982ZM82.0986 37.0582V39.7942H87.6606C88.6866 39.7942 88.9746 39.5242 88.9746 38.6422V38.2102C88.9746 37.3102 88.6866 37.0582 87.6606 37.0582H82.0986Z" fill="black"/>
</svg>
